<svg xmlns="http://www.w3.org/2000/svg" style="display:none">

    <!-- Flèche vers le haut -->
    <symbol id="icon-arrow-up" viewBox="0 0 24 24">
        <path d="M12 4l-8 8h5v8h6v-8h5z" />
    </symbol>

    <!-- Marqueur de carte -->
    <symbol id="icon-map-marker" viewBox="0 0 24 24">
        <path
            d="M12 2C8.1 2 5 5.1 5 9c0 5.2 7 13 7 13s7-7.8 7-13c0-3.9-3.1-7-7-7zm0 9.5a2.5 2.5 0 1 1 0-5 2.5 2.5 0 0 1 0 5z" />
    </symbol>

    <!-- Facebook -->
    <symbol id="icon-facebook" viewBox="0 0 24 24">
        <path d="M18 2h-3a5 5 0 0 0-5 5v3H7v4h3v8h4v-8h3l1-4h-4V7a1 1 0 0 1 1-1h3V2z" />
    </symbol>

    <!-- Instagram -->
    <symbol id="icon-instagram" viewBox="0 0 24 24">
        <path
            d="M7 2C4.2 2 2 4.2 2 7v10c0 2.8 2.2 5 5 5h10c2.8 0 5-2.2 5-5V7c0-2.8-2.2-5-5-5H7zm10 2c1.7 0 3 1.3 3 3v10c0 1.7-1.3 3-3 3H7c-1.7 0-3-1.3-3-3V7c0-1.7 1.3-3 3-3h10zm-5 3.5A4.5 4.5 0 1 0 16.5 12 4.5 4.5 0 0 0 12 7.5zm0 7.5A3 3 0 1 1 15 12a3 3 0 0 1-3 3zm4.8-8.9a1 1 0 1 0 1 1 1 1 0 0 0-1-1z" />
    </symbol>

    <!-- Email -->
    <symbol id="icon-email" viewBox="0 0 24 24">
        <path
            d="M4 4h16a2 2 0 0 1 2 2v12a2 2 0 0 1-2 2H4a2 2 0 0 1-2-2V6a2 2 0 0 1 2-2zm8 8l8-5H4l8 5zm0 2l-8-5v9h16v-9l-8 5z" />
    </symbol>

    <!-- Téléphone -->
    <symbol id="icon-phone" viewBox="0 0 24 24">
        <path
            d="M6.6 10.8a15.1 15.1 0 0 0 6.6 6.6l2.2-2.2a1 1 0 0 1 1-.2 11.1 11.1 0 0 0 3.5.6 1 1 0 0 1 1 1V22a1 1 0 0 1-1 1A17 17 0 0 1 3 6a1 1 0 0 1 1-1H6a1 1 0 0 1 1 1 11.1 11.1 0 0 0 .6 3.5 1 1 0 0 1-.2 1Z" />
    </symbol>

</svg>